<?xml version="1.0" encoding="UTF-8"?>
<!-- Created with Inkscape (http://www.inkscape.org/) -->
<svg width="2.1167mm" height="2.1167mm" version="1.1" viewBox="0 0 2.1167 2.1167" xmlns="http://www.w3.org/2000/svg">
 <g transform="rotate(45 155.95 -44.512)">
  <path d="m79.391 96.481c-0.05206-0.04707-0.13213-0.04545-0.18234 0.0048l-0.56127 0.56127-0.56127-0.56127c-0.05182-0.05182-0.13527-0.05182-0.18709 0s-0.05182 0.13526 0 0.18709l0.56127 0.56127-0.56127 0.56127c-0.05182 0.05182-0.05182 0.13526 0 0.18709 0.05182 0.05182 0.13526 0.05182 0.18709 0l0.56127-0.56127 0.56127 0.56127c0.05182 0.05182 0.13526 0.05182 0.18709 0 0.05182-0.05182 0.05182-0.13526 0-0.18709l-0.56127-0.56132 0.56127-0.56127c0.05182-0.05182 0.05182-0.13527 0-0.18709-0.0016-0.0016-0.0031-0.0032-0.0048-0.0048z" stroke-width=".26458"/>
 </g>
</svg>
